<svg xmlns="http://www.w3.org/2000/svg" style="display: none;">
  <symbol id="home" viewBox="0 0 24 24">
    <path d="M10 20v-6h4v6h5v-8h3L12 3 2 12h3v8z" />
  </symbol>

  <symbol id="email" viewBox="0 0 24 24">
    <path d="M20 4H4c-1.1 0-1.99.9-1.99 2L2 18c0 1.1.9 2 2 2h16c1.1 0 2-.9 2-2V6c0-1.1-.9-2-2-2zm0 4l-8 5-8-5V6l8 5 8-5v2z" />
  </symbol>

  <symbol id="phone" viewBox="0 0 24 24">
    <path d="M6.62 10.79c1.44 2.83 3.76 5.14 6.59 6.59l2.2-2.2c.27-.27.67-.36 1.02-.24 1.12.37 2.33.57 3.57.57.55 0 1 .45 1 1V20c0 .55-.45 1-1 1-9.39 0-17-7.61-17-17 0-.55.45-1 1-1h3.5c.55 0 1 .45 1 1 0 1.25.2 2.45.57 3.57.11.35.03.74-.25 1.02l-2.2 2.2z" />
  </symbol>

  <symbol id="web" viewBox="0 0 24 24">
    <path d="M11.99 2C6.47 2 2 6.48 2 12s4.47 10 9.99 10C17.52 22 22 17.52 22 12S17.52 2 11.99 2m6.93 6h-2.95c-.32-1.25-.78-2.45-1.38-3.56 1.84.63 3.37 1.91 4.33 3.56M12 4.04c.83 1.2 1.48 2.53 1.91 3.96h-3.82c.43-1.43 1.08-2.76 1.91-3.96M4.26 14C4.1 13.36 4 12.69 4 12s.1-1.36.26-2h3.38c-.08.66-.14 1.32-.14 2s.06 1.34.14 2zm.82 2h2.95c.32 1.25.78 2.45 1.38 3.56-1.84-.63-3.37-1.9-4.33-3.56m2.95-8H5.08c.96-1.66 2.49-2.93 4.33-3.56C8.81 5.55 8.35 6.75 8.03 8M12 19.96c-.83-1.2-1.48-2.53-1.91-3.96h3.82c-.43 1.43-1.08 2.76-1.91 3.96M14.34 14H9.66c-.09-.66-.16-1.32-.16-2s.07-1.35.16-2h4.68c.09.65.16 1.32.16 2s-.07 1.34-.16 2m.25 5.56c.6-1.11 1.06-2.31 1.38-3.56h2.95c-.96 1.65-2.49 2.93-4.33 3.56M16.36 14c.08-.66.14-1.32.14-2s-.06-1.34-.14-2h3.38c.16.64.26 1.31.26 2s-.1 1.36-.26 2z" />
  </symbol>

  <symbol id="work" viewBox="0 0 24 24">
    <path d="M20 6h-4V4c0-1.11-.89-2-2-2h-4c-1.11 0-2 .89-2 2v2H4c-1.11 0-1.99.89-1.99 2L2 19c0 1.11.89 2 2 2h16c1.11 0 2-.89 2-2V8c0-1.11-.89-2-2-2m-6 0h-4V4h4z" />
  </symbol>

  <symbol id="skills" viewBox="0 0 24 24">
    <path d="m13.7829 15.1718 2.1213-2.1213 5.9963 5.9963-2.1213 2.1213zM17.5 10c1.93 0 3.5-1.57 3.5-3.5 0-.58-.16-1.12-.41-1.6l-2.7 2.7-1.49-1.49 2.7-2.7c-.48-.25-1.02-.41-1.6-.41C15.57 3 14 4.57 14 6.5c0 .41.08.8.21 1.16l-1.85 1.85-1.78-1.78.71-.71-1.41-1.41L12 3.49c-1.17-1.17-3.07-1.17-4.24 0L4.22 7.03l1.41 1.41H2.81l-.71.71 3.54 3.54.71-.71V9.15l1.41 1.41.71-.71 1.78 1.78-7.41 7.41 2.12 2.12L16.34 9.79c.36.13.75.21 1.16.21" />
  </symbol>

  <symbol id="education" viewBox="0 0 24 24">
    <path d="M5 13.18v4L12 21l7-3.82v-4L12 17zM12 3 1 9l11 6 9-4.91V17h2V9z" />
  </symbol>

  <symbol id="personal" viewBox="0 0 24 24">
    <path d="M12 12c2.21 0 4-1.79 4-4s-1.79-4-4-4-4 1.79-4 4 1.79 4 4 4m0 2c-2.67 0-8 1.34-8 4v2h16v-2c0-2.66-5.33-4-8-4" />
  </symbol>

  <symbol id="architecture" viewBox="0 0 24 24">
    <path d="M6.36 18.78 6.61 21l1.62-1.54 2.77-7.6c-.68-.17-1.28-.51-1.77-.98zm8.41-7.9c-.49.47-1.1.81-1.77.98l2.77 7.6L17.39 21l.26-2.22zM15 8c0-1.3-.84-2.4-2-2.82V3h-2v2.18C9.84 5.6 9 6.7 9 8c0 1.66 1.34 3 3 3s3-1.34 3-3m-3 1c-.55 0-1-.45-1-1s.45-1 1-1 1 .45 1 1-.45 1-1 1" />
  </symbol>

  <symbol id="github" viewBox="0 0 24 24">
    <path d="M12 1.27a11 11 0 00-3.48 21.46c.55.09.73-.28.73-.55v-1.84c-3.03.64-3.67-1.46-3.67-1.46-.55-1.29-1.28-1.65-1.28-1.65-.92-.65.1-.65.1-.65 1.1 0 1.73 1.1 1.73 1.1.92 1.65 2.57 1.2 3.21.92a2 2 0 01.64-1.47c-2.47-.27-5.04-1.19-5.04-5.5 0-1.1.46-2.1 1.2-2.84a3.76 3.76 0 010-2.93s.91-.28 3.11 1.1c1.8-.49 3.7-.49 5.5 0 2.1-1.38 3.02-1.1 3.02-1.1a3.76 3.76 0 010 2.93c.83.74 1.2 1.74 1.2 2.94 0 4.21-2.57 5.13-5.04 5.4.45.37.82.92.82 2.02v3.03c0 .27.1.64.73.55A11 11 0 0012 1.27" />
  </symbol>

  <symbol id="linkedin" viewBox="0 0 24 24">
    <path d="M19 3a2 2 0 0 1 2 2v14a2 2 0 0 1-2 2H5a2 2 0 0 1-2-2V5a2 2 0 0 1 2-2h14m-.5 15.5v-5.3a3.26 3.26 0 0 0-3.26-3.26c-.85 0-1.84.52-2.32 1.3v-1.11h-2.79v8.37h2.79v-4.93c0-.77.62-1.4 1.39-1.4a1.4 1.4 0 0 1 1.4 1.4v4.93h2.79M6.88 8.56a1.68 1.68 0 0 0 1.68-1.68c0-.93-.75-1.69-1.68-1.69a1.69 1.69 0 0 0-1.69 1.69c0 .93.76 1.68 1.69 1.68m1.39 9.94v-8.37H5.5v8.37h2.77z" />
  </symbol>

  <symbol id="settings" viewBox="0 0 24 24">
    <path d="M19.14 12.94c.04-.3.06-.61.06-.94 0-.32-.02-.64-.07-.94l2.03-1.58c.18-.14.23-.41.12-.61l-1.92-3.32c-.12-.22-.37-.29-.59-.22l-2.39.96c-.5-.38-1.03-.7-1.62-.94l-.36-2.54c-.04-.24-.24-.41-.48-.41h-3.84c-.24 0-.43.17-.47.41l-.36 2.54c-.59.24-1.13.57-1.62.94l-2.39-.96c-.22-.08-.47 0-.59.22L2.74 8.87c-.12.21-.08.47.12.61l2.03 1.58c-.05.3-.09.63-.09.94s.02.64.07.94l-2.03 1.58c-.18.14-.23.41-.12.61l1.92 3.32c.12.22.37.29.59.22l2.39-.96c.5.38 1.03.7 1.62.94l.36 2.54c.05.24.24.41.48.41h3.84c.24 0 .44-.17.47-.41l.36-2.54c.59-.24 1.13-.56 1.62-.94l2.39.96c.22.08.47 0 .59-.22l1.92-3.32c.12-.22.07-.47-.12-.61zM12 15.6c-1.98 0-3.6-1.62-3.6-3.6s1.62-3.6 3.6-3.6 3.6 1.62 3.6 3.6-1.62 3.6-3.6 3.6" />
  </symbol>

  <symbol id="folder" viewBox="0 0 24 24">
    <path d="M10 4H4c-1.1 0-1.99.9-1.99 2L2 18c0 1.1.9 2 2 2h16c1.1 0 2-.9 2-2V8c0-1.1-.9-2-2-2h-8z" />
  </symbol>

  <symbol id="article" viewBox="0 0 24 24">
    <path d="M19 3H5c-1.1 0-2 .9-2 2v14c0 1.1.9 2 2 2h14c1.1 0 2-.9 2-2V5c0-1.1-.9-2-2-2m-5 14H7v-2h7zm3-4H7v-2h10zm0-4H7V7h10z" />
  </symbol>

  <symbol id="download" viewBox="0 0 24 24">
    <path d="M5 20h14v-2H5zM19 9h-4V3H9v6H5l7 7z" />
  </symbol>

  <symbol id="close" viewBox="0 0 24 24">
    <path d="M19 6.41 17.59 5 12 10.59 6.41 5 5 6.41 10.59 12 5 17.59 6.41 19 12 13.41 17.59 19 19 17.59 13.41 12z" />
  </symbol>
</svg>
